<?xml version="1.0" encoding="UTF-8"?><!DOCTYPE svg PUBLIC "-//W3C//DTD SVG 1.1//EN" "http://www.w3.org/Graphics/SVG/1.1/DTD/svg11.dtd"><svg xmlns="http://www.w3.org/2000/svg" xmlns:xlink="http://www.w3.org/1999/xlink"><defs><clipPath id="clip0"><path fill="#fff" d="M0 0h50v50H0z"/></clipPath></defs><symbol id="icon--32-facebook" viewBox="0 0 32 32"><path d="M19.387 8.58h1.947V5.063c-.336-.048-1.491-.156-2.837-.156-2.808 0-4.732 1.831-4.732 5.198v3.098h-3.098v3.933h3.098v9.894h3.8v-9.894h2.973l.472-3.932h-3.446v-2.71c0-1.136.296-1.914 1.823-1.914z"/></symbol><symbol id="icon--32-googleplus" viewBox="0 0 32 32"><path d="M24.732 13.387h-1.944v1.935h-1.936v1.944h1.936V19.2h1.944v-1.935h1.935v-1.944h-1.935v-1.935zM12 22.72c3.847 0 6.403-2.7 6.403-6.512a5.69 5.69 0 00-.109-1.11h-6.293v2.292h3.784c-.155.974-1.146 2.874-3.784 2.874-2.273 0-4.13-1.883-4.13-4.21 0-2.329 1.856-4.212 4.13-4.212 1.3 0 2.164.554 2.656 1.027l1.81-1.736C15.3 10.042 13.8 9.386 12 9.386a6.665 6.665 0 00-6.667 6.666A6.665 6.665 0 0012 22.72z"/></symbol><symbol id="icon--32-linkidin" viewBox="0 0 32 32"><path d="M10.24 11.947H5.333v14.72h4.907v-14.72zM23.138 12.12c-.05-.017-.098-.034-.15-.049a3.031 3.031 0 00-.192-.037 4.167 4.167 0 00-.846-.087c-2.752 0-4.496 2.03-5.071 2.814v-2.814H12.16v14.72h4.719v-8.03s3.566-5.039 5.07-1.338v9.368h4.718v-9.934a4.762 4.762 0 00-3.53-4.614zM7.68 10.027a2.347 2.347 0 100-4.694 2.347 2.347 0 000 4.694z"/></symbol><symbol id="icon--32-printest" viewBox="0 0 32 32"><path d="M16.21 5.333c-5.848.001-8.957 3.748-8.957 7.833 0 1.895 1.06 4.258 2.754 5.008.484.217.42-.049.836-1.64a.378.378 0 00-.09-.37c-2.424-2.803-.474-8.565 5.111-8.565 8.083 0 6.572 11.184 1.406 11.184-1.331 0-2.323-1.045-2.01-2.338.381-1.54 1.126-3.197 1.126-4.307 0-2.798-4.169-2.383-4.169 1.324 0 1.146.405 1.92.405 1.92s-1.341 5.418-1.59 6.43c-.421 1.714.057 4.489.099 4.728.025.131.173.173.256.065.132-.174 1.753-2.487 2.208-4.159.165-.609.843-3.08.843-3.08.447.808 1.736 1.483 3.11 1.483 4.085 0 7.038-3.591 7.038-8.047-.014-4.272-3.67-7.468-8.376-7.468z"/></symbol><symbol id="icon--32-twiter" viewBox="0 0 32 32"><path d="M26.667 9.305a9.12 9.12 0 01-2.52.691A4.35 4.35 0 0026.07 7.58a8.741 8.741 0 01-2.774 1.058 4.372 4.372 0 00-7.565 2.99c0 .348.03.681.101.998-3.636-.177-6.853-1.92-9.014-4.574a4.403 4.403 0 00-.6 2.21 4.38 4.38 0 001.944 3.635 4.318 4.318 0 01-1.976-.539v.048a4.394 4.394 0 003.504 4.298 4.366 4.366 0 01-1.147.144c-.28 0-.563-.016-.828-.075.567 1.732 2.175 3.005 4.087 3.047a8.788 8.788 0 01-5.423 1.865c-.359 0-.703-.016-1.047-.06a12.313 12.313 0 006.71 1.963c8.048 0 12.448-6.667 12.448-12.446 0-.193-.007-.38-.016-.565a8.725 8.725 0 002.192-2.27z"/></symbol><symbol id="icon--32-vk" viewBox="0 0 32 32"><path d="M26.476 20.67c-.057-.096-.412-.866-2.118-2.45-1.787-1.66-1.547-1.39.605-4.258 1.31-1.747 1.835-2.814 1.67-3.27-.155-.434-1.12-.32-1.12-.32l-3.205.019s-.237-.032-.415.073c-.172.104-.282.344-.282.344s-.508 1.352-1.186 2.502c-1.428 2.425-2 2.553-2.233 2.403-.543-.351-.407-1.411-.407-2.163 0-2.351.356-3.331-.695-3.584-.349-.084-.605-.14-1.497-.15-1.144-.012-2.114.004-2.662.272-.365.179-.646.578-.474.6.212.028.692.13.946.476.33.447.318 1.453.318 1.453s.19 2.766-.441 3.11c-.434.236-1.027-.245-2.3-2.447-.653-1.126-1.146-2.373-1.146-2.373s-.095-.232-.264-.356c-.205-.15-.494-.199-.494-.199l-3.048.019s-.457.013-.625.212c-.15.177-.012.543-.012.543s2.387 5.583 5.088 8.398c2.48 2.58 5.293 2.41 5.293 2.41h1.274s.386-.042.582-.254c.181-.195.174-.56.174-.56s-.025-1.711.77-1.963c.783-.248 1.788 1.653 2.853 2.386.806.553 1.418.431 1.418.431l2.85-.04s1.49-.091.783-1.264z"/></symbol><symbol id="icon--50-calc" viewBox="0 0 50 50"><path d="M33.871 3.226c-4.891 0-8.871 3.98-8.871 8.87h1.613c0-4.002 3.256-7.258 7.258-7.258V3.226zM41.129 12.097c0 4.002-3.256 7.258-7.258 7.258v1.613c4.89 0 8.87-3.98 8.87-8.871H41.13z" fill="#363D4F"/><path d="M45.968 12.097C45.968 5.427 40.54 0 33.87 0c-4.632 0-8.659 2.62-10.691 6.452H4.839a.805.805 0 00-.807.806v41.935c0 .447.36.807.807.807h35.484c.446 0 .806-.36.806-.806V21.752c2.931-2.21 4.839-5.71 4.839-9.655zm-21.752 7.258H8.871V11.29h12.944c-.018.268-.04.534-.04.807 0 2.725.916 5.234 2.441 7.258zm15.3 29.032H5.646V8.065H22.48c-.186.524-.35 1.058-.463 1.612H8.064a.805.805 0 00-.806.807v9.677c0 .446.36.807.806.807h17.61c2.158 1.995 5.033 3.226 8.197 3.226 2.038 0 3.958-.512 5.645-1.406v25.6zm-5.645-25.806c-5.78 0-10.484-4.704-10.484-10.484S28.09 1.613 33.871 1.613c5.78 0 10.484 4.703 10.484 10.484 0 5.78-4.703 10.484-10.484 10.484z" fill="#363D4F"/><path d="M34.678 16.13a2.423 2.423 0 002.419-2.42 2.423 2.423 0 00-2.42-2.42h-1.612a.807.807 0 010-1.613h4.032V8.065h-2.42V6.452h-1.612v1.613a2.422 2.422 0 00-2.42 2.419 2.423 2.423 0 002.42 2.42h1.613a.807.807 0 010 1.612h-4.033v1.613h2.42v1.613h1.613v-1.613zM12.903 24.193H8.065a.805.805 0 00-.807.807v4.838c0 .447.36.807.807.807h4.838c.446 0 .807-.36.807-.806v-4.84a.805.805 0 00-.807-.806zm-.806 4.84H8.87v-3.227h3.226v3.226zM20.968 24.193h-4.839a.805.805 0 00-.807.807v4.838c0 .447.36.807.807.807h4.839c.446 0 .806-.36.806-.806v-4.84a.805.805 0 00-.806-.806zm-.807 4.84h-3.226v-3.227h3.226v3.226zM29.032 24.193h-4.838a.805.805 0 00-.807.807v4.838c0 .447.36.807.807.807h4.838c.447 0 .807-.36.807-.806v-4.84a.805.805 0 00-.807-.806zm-.806 4.84H25v-3.227h3.226v3.226zM12.903 32.258H8.065a.805.805 0 00-.807.807v4.839c0 .446.36.806.807.806h4.838c.446 0 .807-.36.807-.806v-4.84a.806.806 0 00-.807-.806zm-.806 4.839H8.87v-3.226h3.226v3.226zM20.968 32.258h-4.839a.806.806 0 00-.807.807v4.839c0 .446.36.806.807.806h4.839c.446 0 .806-.36.806-.806v-4.84a.805.805 0 00-.806-.806zm-.807 4.839h-3.226v-3.226h3.226v3.226zM29.032 32.258h-4.838a.806.806 0 00-.807.807v4.839c0 .446.36.806.807.806h4.838c.447 0 .807-.36.807-.806v-4.84a.805.805 0 00-.807-.806zm-.806 4.839H25v-3.226h3.226v3.226zM31.452 33.065v12.903c0 .446.36.806.806.806h4.839c.446 0 .806-.36.806-.806V33.065a.806.806 0 00-.806-.807h-4.839a.805.805 0 00-.806.807zm1.613.806h3.225v11.29h-3.225v-11.29zM12.903 40.323H8.065a.805.805 0 00-.807.806v4.839c0 .446.36.806.807.806h4.838c.446 0 .807-.36.807-.806v-4.839a.805.805 0 00-.807-.806zm-.806 4.838H8.87v-3.225h3.226v3.225zM20.968 40.323h-4.839a.805.805 0 00-.807.806v4.839c0 .446.36.806.807.806h4.839c.446 0 .806-.36.806-.806v-4.839a.805.805 0 00-.806-.806zm-.807 4.838h-3.226v-3.225h3.226v3.225zM29.032 40.323h-4.838a.805.805 0 00-.807.806v4.839c0 .446.36.806.807.806h4.838c.447 0 .807-.36.807-.806v-4.839a.805.805 0 00-.807-.806zm-.806 4.838H25v-3.225h3.226v3.225z" fill="#363D4F"/></symbol><symbol id="icon--50-operator" viewBox="0 0 50 50"><g clip-path="url(#clip0)"><path d="M5 50h40a1.653 1.653 0 001.66-1.675v-3.366c-.277-5.614-3.334-6.556-3.457-6.592L32.5 35.212v-4.667a5.96 5.96 0 001.896-3.877h2.27a2.5 2.5 0 002.5-2.5v-5A2.5 2.5 0 0037.5 16.82v-5.153C37.5 5.016 32.127 0 25 0S12.5 5.016 12.5 11.667v5.153a2.5 2.5 0 00-1.667 2.347v5a2.5 2.5 0 001.667 2.346v.987a3.333 3.333 0 003.333 3.333H17.5v4.378L6.804 38.366c-.13.037-3.185.979-3.462 6.634v3.31A1.653 1.653 0 005 50zm9.167-36.583A10.583 10.583 0 0125 5a10.623 10.623 0 0110.833 8.417v3.25h-1.03c-.833-3.513-2.443-4.591-2.627-4.704-2.32-1.391-9.578-1.161-12.297-.987-.79.03-1.54.35-2.107.899a11.037 11.037 0 00-2.512 4.792h-1.093v-3.25zm5 18.9c1.363 1.766 2.005 3.516 4.518 3.516 3.777 0 4.456.347 6.42-2.51.222-.321.462-.662.73-1.01v3.389c-1.34 3.546-10.357 3.516-11.668 0v-3.385zm11.85-2.657c-2.6 2.334-2.676 4.507-4.703 4.507-3.599 0-3.575.35-5.047-1.789-.317-.461-.692-.99-1.157-1.545h1.788a1.66 1.66 0 001.435.834h3.334c.92 0 1.666-.747 1.666-1.667v-1.667c0-.92-.746-1.666-1.666-1.666h-3.334c-.92 0-1.666.746-1.666 1.666v.834H18.5c-1.333-1.45-1.3-2.73-1.242-4.309a12.058 12.058 0 00-.239-3.64c-.322-1.682-.525-2.833-.125-4.219a9.324 9.324 0 012.06-3.946c.28-.26.646-.407 1.028-.416 2.71-.175 8.853-.38 11.341.758.99.768 2.204 3.433 2.005 5.553-.192 2.01-.615 3-.615 4.583-.001 2.59.515 4.136-1.697 6.125v.004zm-7.684.34v-1.667h3.334V30h-3.334zM37.5 24.167c0 .46-.373.833-.833.833h-2.25c-.128-3.573.264-2.667.568-5.89.02-.259.024-.518.015-.777h1.667c.46 0 .833.373.833.834v5zM35.27 8.32C33.483 5.833 30.357 3.333 25 3.333c-5.357 0-8.483 2.5-10.27 4.987 3.103-8.9 17.437-8.887 20.54 0zM12.5 19.167c0-.46.373-.834.833-.834h1.678c.012 1.076.135 2.148.369 3.198.25 1.138.318 2.31.203 3.469h-2.25a.833.833 0 01-.833-.833v-5zm1.667 8.333v-.833h1.437c.07.884.345 1.74.803 2.5h-.574c-.92 0-1.666-.747-1.666-1.667zM7.27 39.966l10.603-3.129C18.534 38 20.343 40 25 40s6.466-2 7.126-3.167l10.592 3.125c.084.029 2.065.75 2.278 5.038v3.337H5.008v-3.292c.214-4.333 2.19-5.05 2.263-5.075z" fill="#363D4F"/></g></symbol><symbol id="icon--50-techhelp" viewBox="0 0 50 50"><path d="M41.778 20.629a2.338 2.338 0 00-.45-2.66 2.401 2.401 0 00-3.314 0l-.552.552-.781-.781 1.25-1.25a2.43 2.43 0 012.123-.636 7.09 7.09 0 006.02-1.983 7.011 7.011 0 001.504-7.716.783.783 0 00-1.272-.248L42.5 9.71l-1.84-.368-.37-1.842 3.803-3.804a.78.78 0 00-.249-1.274 7.031 7.031 0 00-9.699 7.526 2.44 2.44 0 01-.637 2.12l-1.25 1.25-5.204-5.205-1.052-2.097a.781.781 0 00-.319-.334l-4.968-2.756a.781.781 0 00-.932.131l-1.101 1.102a.782.782 0 00-.13.93l2.757 4.97a.782.782 0 00.333.32l2.098 1.051 5.204 5.205-1.25 1.25a2.43 2.43 0 01-2.122.636 7.037 7.037 0 00-7.525 9.698.781.781 0 001.271.249l3.805-3.803 1.84.368.369 1.841-3.803 3.804a.78.78 0 00.248 1.272 7.032 7.032 0 009.7-7.527 2.44 2.44 0 01.636-2.12l1.25-1.25.781.781-.55.554a2.338 2.338 0 002.661 3.767l4.614 4.614a3.908 3.908 0 005.525-5.524l-4.616-4.616zM24.755 10.234a.772.772 0 00-.201-.146l-1.996-1-2.355-4.244.265-.266 4.244 2.356 1 1.994a.76.76 0 00.146.202l5.294 5.295-1.106 1.105-5.29-5.296zm6.26 10.964a3.984 3.984 0 00-1.077 3.457 5.472 5.472 0 01-6.375 6.204l3.177-3.176a.78.78 0 00.213-.703l-.556-2.761a.781.781 0 00-.616-.616l-2.762-.552a.782.782 0 00-.703.213L19.14 26.44a5.473 5.473 0 016.202-6.375 4.037 4.037 0 003.46-1.077l5.811-5.81a3.985 3.985 0 001.077-3.459 5.472 5.472 0 016.375-6.203L38.89 6.69a.781.781 0 00-.214.703l.553 2.762a.781.781 0 00.612.613l2.762.552a.78.78 0 00.703-.213l3.18-3.173a5.474 5.474 0 01-6.202 6.375 4.034 4.034 0 00-3.46 1.08l-5.808 5.808zm4.564-2.354l.782.782-1.111 1.105-.782-.781 1.111-1.105zm-.877 5.754a.781.781 0 010-1.105l4.42-4.42a.78.78 0 111.104 1.106l-4.42 4.42a.8.8 0 01-1.108-.001h.004zm10.592 5.067a2.348 2.348 0 01-3.315 0l-4.515-4.515 3.315-3.314 4.514 4.514a2.346 2.346 0 010 3.315z" fill="#363D4F"/><path d="M47.772 35.078a3.122 3.122 0 00-4.264-1.148l-7.618 4.398a3.097 3.097 0 00-1.765-1.273l-11.656-3.124a5.469 5.469 0 00-2.742-.024l-4.102 1.03v-1.343a.781.781 0 00-.781-.782h-6.25a.781.781 0 00-.781.782v.781h-5.47a.781.781 0 00-.78.781v10.938a.781.781 0 00.78.781h5.47v.781a.781.781 0 00.78.782h6.25a.781.781 0 00.782-.782v-1.08l1.005.503a5.49 5.49 0 002.445.577h11.7c.96 0 1.904-.253 2.735-.733l13.125-7.578a3.134 3.134 0 001.137-4.267zM3.125 45.312v-9.374h4.688v9.374H3.125zm10.938 1.563H9.375v-12.5h4.688v12.5zm31.789-8.88l-13.125 7.578a3.907 3.907 0 01-1.954.524H19.075a3.928 3.928 0 01-1.746-.413l-1.704-.854v-8.282l4.48-1.12a3.926 3.926 0 011.96.017l11.655 3.124a1.563 1.563 0 11-.808 3.018l-9.318-2.498a.781.781 0 00-.404 1.51l9.316 2.5a3.16 3.16 0 002.069-.149 3.09 3.09 0 001.843-3.116l7.869-4.543a1.59 1.59 0 012.13.572 1.57 1.57 0 01-.565 2.132z" fill="#363D4F"/></symbol><symbol id="icon--50-trcator" viewBox="0 0 50 50"><path d="M44.531 27.344V25a.78.78 0 00-.782-.781h-2.343v-.782h1.562a.78.78 0 00.781-.78v-2.345a.78.78 0 00-.781-.78h-1.563a3.91 3.91 0 00-3.906 3.905v.782a.78.78 0 00-.781.781v2.344h-1.563V17.187a2.347 2.347 0 00-2.343-2.343h-7.085a5.799 5.799 0 00-.69-2.057l1.297-1.297a.783.783 0 00.205-.742l-.781-3.125a.783.783 0 00-.409-.51l-3.125-1.562c-.044-.023-.092-.024-.139-.038l.005-.015L6.902 1.16A2.932 2.932 0 005.468.781c-1.271 0-2.395.81-2.798 2.017L.821 8.347a.774.774 0 00-.04.247v21.875h.005c0 .083.009.166.035.247l1.56 4.678a4.218 4.218 0 004.005 2.887 4.197 4.197 0 002.987-1.236l3.222-3.222a2.33 2.33 0 00.685-1.657l.001-5.603a.783.783 0 00-.082-.35l-.781-1.562a.78.78 0 00-1.252-.203L9.604 26.01a.776.776 0 00-.229.552v.69a.628.628 0 01-.35.565 2.179 2.179 0 00-1.213 1.962v.86l-2.103.526-.938-.938 4.896-19.582 8.688 7.35a8.553 8.553 0 00-1.949 5.442v8.738a2.34 2.34 0 00-1.562 2.2 2.346 2.346 0 002.344 2.343h3.125v1.563h-3.907a5.476 5.476 0 00-5.468 5.469 5.474 5.474 0 005.467 5.468h26.563a5.475 5.475 0 005.469-5.469 5.475 5.475 0 00-5.469-5.468h-3.906v-1.563h7.812a2.347 2.347 0 002.344-2.344v-2.343a4.693 4.693 0 00-4.687-4.687zm1.12 17.983c.145-.247.258-.513.332-.796h.812c-.101.497-.3.959-.572 1.369l-.572-.573zm.332-2.358a3.055 3.055 0 00-.332-.796l.572-.573c.272.41.47.872.572 1.37h-.812v-.001zm-1.452.781c0 .86-.7 1.562-1.562 1.562H16.406c-.861 0-1.562-.701-1.562-1.563 0-.861.7-1.562 1.562-1.562H42.97c.861 0 1.562.7 1.562 1.563zm-25 3.124v.782H17.97v-.782h1.562zm1.563 0h1.562v.782h-1.562v-.782zm3.125 0h1.562v.782H24.22v-.782zm3.124 0h1.563v.782h-1.563v-.782zm3.126 0h1.562v.782H30.47v-.782zm3.125 0h1.562v.782h-1.562v-.782zm3.124 0h1.563v.782h-1.563v-.782zm3.125 0h1.563v.782h-1.563v-.782zm-26.12-4.702a3.123 3.123 0 00-.332.796h-.813c.102-.498.3-.96.572-1.37l.573.574zm-.332 2.359c.074.283.186.55.332.796l-.572.572a3.877 3.877 0 01-.572-1.37h.812v.002zm20.203-3.906v-.781h1.562v.781h-1.562zm-9.375 0v-.781h1.562v.781H24.22zm3.124-.781h1.563v.781h-1.563v-.781zm3.126 0h1.562v.781H30.47v-.781zm-7.813 0v.781h-1.562v-.781h1.562zm-3.125.781H17.97v-.781h1.562v.781zm20.312 0v-.781h1.563v.781h-1.563zm-1.562 0H36.72v-.781h1.562v.781zm-21.875-.781v.781c-.577 0-1.112.168-1.577.442l-.574-.573a3.877 3.877 0 012.151-.65zm-2.15 7.16l.573-.573c.465.275 1 .442 1.577.442v.782a3.87 3.87 0 01-2.15-.65zm28.713-.13a3.09 3.09 0 001.577-.442l.574.573c-.618.41-1.356.651-2.151.651v-.782zm2.15-6.38l-.574.573c-.464-.274-.999-.442-1.576-.442v-.781c.794 0 1.533.24 2.15.65zm-6.056-17.057a2.347 2.347 0 012.343-2.344h.782v.781h-.782c-.861 0-1.562.701-1.562 1.563v.781h-.782v-.781zm-.782 2.344h4.688v1.563H38.28V25.78zm-4.688-8.593V32.03H17.969v-.781h10.156a2.347 2.347 0 002.344-2.344v-9.375a2.346 2.346 0 00-2.343-2.343h-6.332A6.978 6.978 0 0125 16.405h7.812c.43 0 .78.35.78.782zM24.329 8.35l.587 2.347-.829.828a5.851 5.851 0 00-1.533-1.122l-3.381-1.69.06-.12h1.86a.78.78 0 00.7-.431l.431-.864L24.33 8.35zM8.405 3.214l12.35 3.528-.144.29H18.75a.782.782 0 00-.7.431l-.275.552-9.324-4.663-.046-.138zM2.344 29.688v-1.563h1.343l-.39 1.563h-.953zm3.314 3.1l3.125-.781a.781.781 0 00.592-.757v-1.47c0-.24.134-.457.35-.565a2.184 2.184 0 001.213-1.964v-.366l.567-.567.214.428v5.419a.779.779 0 01-.228.552L8.269 35.94a2.647 2.647 0 01-1.883.78 2.656 2.656 0 01-2.524-1.82L2.646 31.25h.936l1.334 1.334a.784.784 0 00.742.204zm-1.58-6.225H2.343V8.72l1.808-5.428a1.386 1.386 0 012.632 0l1.778 5.332-4.485 17.938zm6.038-18.217l-.967-2.898L21.855 11.8a4.241 4.241 0 012.292 3.086 8.554 8.554 0 00-4.692 1.995l-9.366-7.927.043-.173a.767.767 0 00-.016-.436zm9.657 10.404h8.352c.43 0 .78.35.78.781v9.375c0 .431-.35.782-.78.782H17.968v-6.25c0-1.803.686-3.443 1.804-4.688zm-3.367 15.625c0-.431.35-.781.782-.781h16.406v1.562H17.187a.782.782 0 01-.78-.781zM37.5 36.719v1.562H21.875V36.72H37.5zm10.156-2.345c0 .431-.35.782-.782.782H35.156v-6.25h9.375a3.128 3.128 0 013.125 3.125v2.343z" fill="#363D4F"/><path d="M35.938 30.469H37.5v3.125h-1.563v-3.125zM38.281 30.469h1.563v3.125H38.28v-3.125zM40.625 30.469h1.563v3.125h-1.563v-3.125zM5.078 3.906a1.173 1.173 0 000 2.344 1.173 1.173 0 000-2.344zm0 1.562a.39.39 0 110-.781.39.39 0 010 .781zM21.484 14.843c.646 0 1.172-.526 1.172-1.172 0-.646-.525-1.172-1.172-1.172-.646 0-1.172.526-1.172 1.172 0 .646.526 1.172 1.172 1.172zm0-1.562a.391.391 0 110 .783.391.391 0 010-.783zM40.408 44.53h2.56v-1.562h-2.561a1.557 1.557 0 00-1.344-.781c-.576 0-1.075.316-1.346.781h-3.56a1.557 1.557 0 00-1.344-.781c-.576 0-1.075.316-1.346.781h-3.56a1.557 1.557 0 00-1.345-.781c-.575 0-1.074.316-1.345.781h-3.56a1.557 1.557 0 00-1.345-.781c-.575 0-1.074.316-1.345.781h-2.56v1.563h2.561c.271.465.77.781 1.345.781.576 0 1.075-.316 1.346-.781h3.559c.271.465.77.781 1.345.781.576 0 1.075-.316 1.346-.781h3.559c.271.465.77.781 1.345.781.576 0 1.075-.316 1.346-.781h3.559c.271.465.77.781 1.345.781s1.074-.316 1.345-.781z" fill="#363D4F"/></symbol></svg>